HIERARCHY
ROOT hip
{
	OFFSET 0.000000 0.000000 0.000000 
	CHANNELS 6 Xposition Yposition Zposition Xrotation Zrotation Yrotation
	JOINT abdomen
	{
		OFFSET 0.000000 3.402643 0.000000 
		CHANNELS 3 Xrotation Zrotation Yrotation
		JOINT chest
		{
			OFFSET 0.000000 8.438565 -0.680529 
			CHANNELS 3 Xrotation Zrotation Yrotation
			JOINT neck
			{
				OFFSET 0.000000 10.207942 -0.272212 
				CHANNELS 3 Xrotation Zrotation Yrotation
				JOINT head
				{
					OFFSET 0.000000 3.130431 0.000000 
					CHANNELS 3 Xrotation Zrotation Yrotation
					End Site
					{
						OFFSET 0.000000 3.130435 0.000000 
					}
				}
			}
			JOINT lCollar
			{
				OFFSET 3.470700 6.669187 -0.816635 
				CHANNELS 3 Yrotation Zrotation Xrotation
				JOINT lShldr
				{
					OFFSET 3.198488 0.000000 0.000000 
					CHANNELS 3 Zrotation Yrotation Xrotation
					JOINT lForeArm
					{
						OFFSET 10.139888 0.000000 0.000000 
						CHANNELS 3 Yrotation Zrotation Xrotation
						JOINT lHand
						{
							OFFSET 8.370511 0.000000 0.000000 
							CHANNELS 3 Zrotation Yrotation Xrotation
							End Site
							{
								OFFSET 4.083176 0.000000 0.000000 
							}
						}
					}
				}
			}
			JOINT rCollar
			{
				OFFSET -3.470700 6.669187 -0.816635 
				CHANNELS 3 Yrotation Zrotation Xrotation
				JOINT rShldr
				{
					OFFSET -3.198488 0.000000 0.000000 
					CHANNELS 3 Zrotation Yrotation Xrotation
					JOINT rForeArm
					{
						OFFSET -10.139888 0.000000 0.000000 
						CHANNELS 3 Yrotation Zrotation Xrotation
						JOINT rHand
						{
							OFFSET -8.370511 0.000000 0.000000 
							CHANNELS 3 Zrotation Yrotation Xrotation
							End Site
							{
								OFFSET -4.083176 0.000000 0.000000 
							}
						}
					}
				}
			}
		}
	}
	JOINT lThigh
	{
		OFFSET 5.308129 -1.633274 1.361059 
		CHANNELS 3 Xrotation Zrotation Yrotation
		JOINT lShin
		{
			OFFSET -2.041588 -20.007561 0.000000 
			CHANNELS 3 Xrotation Zrotation Yrotation
			JOINT lFoot
			{
				OFFSET 0.000000 -19.190928 -1.224953 
				CHANNELS 3 Xrotation Yrotation Zrotation
				End Site
				{
					OFFSET 0.000000 -2.449906 4.627600 
				}
			}
		}
	}
	JOINT rThigh
	{
		OFFSET -5.308129 -1.633274 1.361059 
		CHANNELS 3 Xrotation Zrotation Yrotation
		JOINT rShin
		{
			OFFSET 2.041588 -20.007561 0.000000 
			CHANNELS 3 Xrotation Zrotation Yrotation
			JOINT rFoot
			{
				OFFSET 0.000000 -19.190928 -1.224953 
				CHANNELS 3 Xrotation Yrotation Zrotation
				End Site
				{
					OFFSET 0.000000 -2.449906 4.627600 
				}
			}
		}
	}
}
MOTION
Frames: 19
Frame Time: 0.033333
-0.464420 43.173950 -12.822912 4.746094 0.000000 0.000000 53.332314 -11.952360 -7.489655 -26.982422 17.412111 -7.409188 51.893955 -0.448424 -2.638422 -6.044923 -15.888670 -4.775391 2.000000 -2.000000 0.000000 -79.150391 -10.498047 -106.740059 91.877831 -48.539410 89.835960 -4.792328 16.518488 114.238655 -2.000000 2.000000 0.000000 73.125000 31.074219 -99.457848 -119.318115 36.839062 115.187286 4.595472 -33.021580 88.489449 -36.264496 14.595141 18.588190 57.928268 -2.377908 -4.073287 -18.382568 0.498923 0.131817 -61.696404 -4.726043 -0.231659 82.067757 0.410134 4.638407 -30.673819 0.012822 0.032665 
-0.464420 43.173950 -12.822912 4.746094 0.000000 0.000000 53.436035 -11.906776 -7.470507 -26.582031 17.246094 -7.301792 51.767139 -0.501082 -2.660093 -8.173828 -15.136717 -4.140625 2.000000 -2.000000 0.000000 -78.457031 -12.851563 -106.408417 91.877831 -48.539410 89.835960 -7.443201 12.690301 111.871658 -2.000000 2.000000 0.000000 73.125000 31.074219 -99.457848 -119.318115 36.839062 115.187286 4.172549 -25.284636 85.858368 -36.264496 14.595141 18.588190 57.928268 -2.377908 -4.073287 -18.382568 0.498923 0.131817 -57.666889 -4.726017 -0.225359 77.864601 0.762035 4.584535 -29.374990 0.024030 0.017111 
-0.464420 43.173950 -12.822912 4.746094 0.000000 0.000000 53.538593 -11.848677 -7.459096 -26.181643 17.080078 -7.167968 51.640278 -0.582707 -2.677387 -10.292970 -14.374999 -3.505860 2.000000 -2.000000 0.000000 -77.675781 -15.292970 -106.106094 91.877831 -48.539410 89.835960 -9.903268 8.818213 109.734070 -2.000000 2.000000 0.000000 73.125000 31.074219 -99.457848 -119.318115 36.839062 115.187286 3.369569 -17.565683 83.335953 -36.264496 14.595141 18.588190 57.928268 -2.377908 -4.073287 -18.382568 0.498923 0.131817 -53.518444 -4.726323 -0.211437 73.718170 1.103417 4.512480 -28.105461 0.014393 0.021550 
-0.464420 43.173950 -12.822912 4.746094 0.000000 0.000000 53.623268 -11.806490 -7.432822 -25.791016 16.914064 -7.060547 51.513454 -0.635365 -2.699059 -12.412109 -13.535156 -2.922208 2.000000 -2.000000 0.000000 -76.982422 -17.666016 -105.793983 91.877831 -48.539410 89.835960 -12.180661 4.803126 107.759521 -2.000000 2.000000 0.000000 73.125000 31.074219 -99.457848 -119.318115 36.839062 115.187286 2.296733 -9.953960 80.771126 -36.264496 14.595141 18.588190 57.928268 -2.377908 -4.073287 -18.382568 0.498923 0.131817 -49.415424 -4.725974 -0.214333 69.520050 1.435465 4.437447 -26.835934 -0.020803 0.008838 
-0.464420 43.173950 -12.822912 4.746094 0.000000 0.000000 53.727318 -11.766620 -7.426267 -25.400391 16.748049 -6.953125 51.376827 -0.707335 -2.717811 -14.511719 -12.734375 -2.345903 2.000000 -2.000000 0.000000 -76.289063 -20.068359 -105.580338 91.877831 -48.539410 89.835960 -14.320457 0.761584 105.962440 -2.000000 2.000000 0.000000 73.125000 31.074219 -99.457848 -119.318115 36.839062 115.187286 0.883370 -2.391626 78.125420 -36.264496 14.595141 18.588190 57.928268 -2.377908 -4.073287 -18.382568 0.498923 0.131817 -45.327835 -4.725783 -0.232568 65.163658 1.768349 4.321551 -25.566402 -0.019039 0.010231 
-0.464420 43.173950 -12.822912 4.746094 0.000000 0.000000 53.831104 -11.721033 -7.409137 -24.990234 16.572266 -6.826172 51.259666 -0.768189 -2.728368 -16.591797 -11.923828 -1.808659 2.000000 -2.000000 0.000000 -75.576172 -22.509766 -105.351563 91.877831 -48.539410 89.835960 -16.322466 -3.385515 104.335358 -2.000000 2.000000 0.000000 73.125000 31.074219 -99.457848 -119.318115 36.839062 115.187286 -0.886098 5.158914 75.257408 -36.264496 14.595141 18.588190 57.928268 -2.377908 -4.073287 -18.382568 0.498923 0.131817 -41.189850 -4.726464 -0.214617 60.971561 2.080070 4.157162 -24.316408 0.003133 0.002029 
-0.464420 43.173950 -12.822912 4.746094 0.000000 0.000000 53.923969 -11.662926 -7.395747 -24.599611 16.416018 -6.718750 51.113338 -0.831962 -2.758378 -18.662111 -11.054687 -1.328126 2.000000 -2.000000 0.000000 -74.843750 -24.853518 -105.166016 91.877831 -48.539410 89.835960 -18.233728 -7.569783 102.805450 -2.000000 2.000000 0.000000 73.125000 31.074219 -99.457848 -119.318115 36.839062 115.187286 -3.088450 12.607718 72.098053 -36.264496 14.595141 18.588190 57.928268 -2.377908 -4.073287 -18.382568 0.498923 0.131817 -37.143768 -4.726166 -0.213000 56.823910 2.382592 4.002881 -23.056631 -0.031472 0.036710 
-0.464420 44.057201 -12.822912 4.746094 0.000000 0.000000 54.017570 -11.613934 -7.387763 -24.208984 16.250002 -6.598830 50.976627 -0.892816 -2.768945 -20.751955 -10.146484 -0.878907 2.000000 -2.000000 0.000000 -74.082031 -27.177736 -105.023994 91.877380 -48.529652 89.835693 -20.084099 -11.810709 101.414032 -2.000000 2.000000 0.000000 73.125000 31.074219 -99.457848 -119.327118 36.829323 115.197067 -5.743684 19.737055 68.552010 -36.264496 14.595140 18.588188 57.928268 -2.377907 -4.073288 -18.382568 0.498923 0.131817 -33.158546 -4.725778 -0.226389 52.595078 2.658015 3.804047 -21.757809 0.012336 0.007602 
-0.427087 44.719646 -12.231657 4.228516 0.000000 0.000000 53.691711 -10.879441 -6.893841 -25.283203 16.054689 -5.996094 48.375652 -0.335923 -2.220864 -18.476564 -8.935546 -0.830078 2.000000 -2.000000 0.000000 -72.500000 -27.167971 -105.717346 89.944374 -48.393726 88.395790 -19.275206 -6.621213 99.785461 -2.000000 2.000000 0.000000 74.042969 30.556641 -98.027344 -119.327118 36.829323 115.197067 -1.785532 13.635108 71.278893 -33.758286 13.699965 18.847069 54.775532 -2.307437 -2.722240 -16.504690 0.593494 0.086154 -29.104986 -4.725314 -0.230651 46.448322 3.049217 3.495593 -22.275360 0.034589 0.021532 
-0.389755 45.337929 -11.640407 3.681641 0.000000 0.000000 53.359295 -10.141338 -6.407886 -26.435547 15.937500 -5.527343 45.687035 0.229198 -1.684047 -16.201174 -7.675781 -0.791014 2.000000 -2.000000 0.000000 -70.820313 -26.982422 -106.439972 87.872894 -48.343349 86.787201 -18.631651 -1.418235 98.244850 -2.000000 2.000000 0.000000 74.912109 30.009764 -96.621094 -119.327118 36.829323 115.197067 1.834944 7.332715 73.523643 -31.232857 12.815541 19.095034 51.528774 -2.084083 -1.341491 -14.366998 0.533766 0.030981 -25.028675 -4.726357 -0.207740 40.150913 3.430727 3.124028 -22.783192 0.010463 0.029195 
-0.352422 45.845802 -11.049154 3.164063 0.000000 0.000000 53.039330 -9.390507 -5.931684 -27.861328 15.810548 -5.039062 43.037571 0.849353 -1.175291 -13.876953 -6.396484 -0.615235 2.000000 -2.000000 0.000000 -69.140625 -26.796875 -107.275391 85.482765 -48.196083 84.928802 -18.118765 3.865691 96.720688 -2.000000 2.000000 0.000000 75.761719 29.609371 -95.249084 -119.327118 36.829323 115.197067 5.230851 0.754528 75.383965 -28.632484 11.874704 19.288986 48.264359 -1.780961 0.016106 -12.293345 0.584951 0.024695 -20.856573 -4.725628 -0.212622 33.836342 3.744157 2.731987 -23.300770 -0.007935 0.051613 
-0.315089 46.302147 -10.457904 2.636719 0.000000 0.000000 52.732201 -8.632660 -5.472699 -29.003910 15.712892 -4.550780 40.358784 1.465137 -0.695734 -11.562502 -5.146484 -0.478515 2.000000 -2.000000 0.000000 -67.519531 -26.601563 -108.090309 83.489059 -48.069942 83.419289 -17.752798 9.201437 95.224724 -2.000000 2.000000 0.000000 76.640625 28.896481 -93.681641 -119.327118 36.829323 115.197067 8.368037 -5.764908 76.843834 -26.126541 10.941323 19.398033 45.089890 -1.428905 1.364147 -10.209194 0.614600 0.027818 -16.814411 -4.725677 -0.213668 27.603294 4.018173 2.315519 -23.847652 -0.023360 0.030424 
-0.277757 46.949875 -9.866652 2.109375 0.000000 0.000000 52.418949 -7.868915 -5.003182 -30.341797 15.664063 -3.935547 37.718460 2.157600 -0.296736 -9.306641 -3.925781 -0.283203 2.000000 -2.000000 0.000000 -65.830078 -26.289063 -108.964844 81.235931 -47.924374 81.691376 -17.475115 14.431508 93.770889 -2.000000 2.000000 0.000000 77.392578 28.466797 -92.368393 -119.327118 36.829323 115.197067 11.457939 -12.509120 77.951797 -23.665825 10.043263 19.449240 41.870110 -0.976136 2.755654 -8.244152 0.602479 -0.021095 -12.600652 -4.723879 -0.229935 21.254345 4.252925 1.863843 -24.355467 -0.011193 0.026873 
-0.240423 47.575508 -9.275402 1.572266 0.000000 0.000000 52.129749 -7.117558 -4.529662 -31.494143 15.527344 -3.447265 35.067841 2.844786 0.132252 -7.011719 -2.675781 0.000000 2.000000 -2.000000 0.000000 -64.228516 -25.986328 -109.951180 79.192749 -47.677883 80.129974 -17.363991 19.772249 92.240242 -2.000000 2.000000 0.000000 78.154297 27.890623 -90.976563 -119.327118 36.829323 115.197067 14.452064 -19.144966 78.736137 -21.177824 9.088014 19.515554 38.675201 -0.461451 4.038630 -6.176417 0.619101 -0.035428 -8.547590 -4.722721 -0.193711 15.029219 4.443120 1.350030 -24.912104 -0.021664 0.042809 
-0.203092 48.186432 -8.684149 1.054688 0.000000 0.000000 51.843197 -6.352381 -4.091931 -32.734379 15.439453 -3.007812 32.416538 3.534316 0.511929 -4.619142 -1.425781 0.322266 2.000000 -2.000000 0.000000 -62.666016 -25.566404 -110.937500 77.097023 -47.405312 78.539955 -17.427305 25.038254 90.726196 -2.000000 2.000000 0.000000 78.857422 27.148438 -89.517029 -119.327118 36.829323 115.197067 17.547934 -25.958752 79.150146 -18.612000 8.143408 19.557758 35.428101 0.109948 5.317431 -4.054058 0.615854 -0.037566 -4.392452 -4.724455 -0.204361 8.701742 4.578490 0.850043 -25.458977 -0.026113 0.016989 
-0.165759 48.709026 -8.092896 0.527344 0.000000 0.000000 51.560692 -5.590487 -3.646617 -34.003910 15.468751 -2.460937 29.803513 4.232027 0.879847 -2.363281 -0.244140 0.683552 2.000000 -2.000000 0.000000 -61.083988 -25.107424 -111.923828 74.907463 -47.030182 76.886330 -17.619070 30.306892 89.107086 -2.000000 2.000000 0.000000 79.482422 26.591799 -88.173828 -119.327118 36.829323 115.197067 20.736107 -32.638958 79.166626 -16.146332 7.230188 19.513298 32.287510 0.769826 6.541913 -2.014191 0.618050 -0.047490 -0.311986 -4.720660 -0.227045 2.371984 4.634229 0.326681 -25.966784 0.010414 0.041294 
-0.128426 49.172737 -7.501648 0.000000 0.000000 0.000000 51.262405 -4.828476 -3.202527 -35.253910 15.439453 -2.011719 27.110090 5.013126 1.146970 -0.156251 0.996094 1.074219 2.000000 -2.000000 0.000000 -59.892578 -23.798828 -112.855499 72.873711 -46.791470 75.305450 -18.036682 35.511906 87.364899 -2.000000 2.000000 0.000000 80.058594 26.015625 -86.860947 -119.318115 36.839062 115.187286 24.196535 -39.308826 78.694809 -13.767213 6.345404 19.400002 29.089123 1.507950 7.728107 0.027402 0.572057 -0.023389 3.661090 -4.726990 -0.193885 -3.680317 4.655013 -0.158276 -26.572250 -0.045072 0.038370 
-0.128426 49.172737 -7.501648 0.000000 0.000000 0.000000 50.766689 -3.835548 -2.650507 -35.458988 14.462890 -2.050781 25.771078 5.085983 1.105468 0.380859 0.068359 0.029297 2.000000 -2.000000 0.000000 -59.912109 -23.808596 -112.851563 72.873711 -46.791470 75.305450 -18.036682 35.511906 87.364899 -2.000000 2.000000 0.000000 80.058594 26.015625 -86.860947 -119.318115 36.839062 115.187286 24.196535 -39.308826 78.694809 -13.767213 6.345404 19.400002 29.089123 1.507950 7.728107 0.027402 0.572057 -0.023389 3.661090 -4.726990 -0.193885 -3.680317 4.655013 -0.158276 -22.177725 -0.030874 0.037233 
-0.128426 49.172737 -7.501648 0.000000 0.000000 0.000000 50.247131 -2.804775 -2.116692 -35.664063 13.486329 -2.087566 24.412338 5.165575 1.044049 0.927733 -0.820313 -1.035159 2.000000 -2.000000 0.000000 -59.892578 -23.798828 -112.855499 72.873711 -46.791470 75.305450 -18.036682 35.511906 87.364899 -2.000000 2.000000 0.000000 80.058594 26.015625 -86.860947 -119.318115 36.839062 115.187286 24.196535 -39.308826 78.694809 -13.767213 6.345404 19.400002 29.089123 1.507950 7.728107 0.027402 0.572057 -0.023389 3.661090 -4.726990 -0.193885 -3.680317 4.655013 -0.158276 -17.734373 -0.009598 0.016743 
